<svg xmlns="http://www.w3.org/2000/svg" viewBox="0 0 1200 800" role="img" aria-labelledby="title desc">
  <title id="title">Boulder Hero Illustration</title>
  <desc id="desc">Abstrakte Boulderhalle mit Kletterflaeche und Griffen in violetten Akzentfarben.</desc>
  <defs>
    <linearGradient id="bg" x1="0" y1="0" x2="1" y2="1">
      <stop offset="0" stop-color="#f0ebf7"/>
      <stop offset="1" stop-color="#f9fbfa"/>
    </linearGradient>
    <linearGradient id="wall" x1="0" y1="0" x2="0" y2="1">
      <stop offset="0" stop-color="#be92b2"/>
      <stop offset="1" stop-color="#8f6082"/>
    </linearGradient>
  </defs>
  <rect width="1200" height="800" fill="url(#bg)"/>
  <path d="M180 760L380 120l280 70 210-90 170 660z" fill="url(#wall)" opacity=".95"/>
  <path d="M0 660h1200v140H0z" fill="#423f40" opacity=".08"/>
  <g fill="#8e3a76">
    <ellipse cx="420" cy="250" rx="34" ry="24"/>
    <ellipse cx="520" cy="370" rx="28" ry="20"/>
    <ellipse cx="680" cy="300" rx="24" ry="18"/>
    <ellipse cx="760" cy="440" rx="30" ry="22"/>
    <ellipse cx="590" cy="520" rx="26" ry="18"/>
  </g>
  <g fill="#f0ebf7" opacity=".95">
    <circle cx="410" cy="245" r="6"/>
    <circle cx="510" cy="365" r="5"/>
    <circle cx="675" cy="296" r="5"/>
    <circle cx="754" cy="435" r="6"/>
    <circle cx="585" cy="515" r="5"/>
  </g>
  <circle cx="940" cy="140" r="90" fill="#e5c3dd" opacity=".7"/>
  <circle cx="1010" cy="220" r="40" fill="#8e3a76" opacity=".25"/>
</svg>
